mtllib material.mtl
usemtl material_0
v -0.81766400 0.39733300 -0.19859700
v -0.81766400 0.39733300 -0.19859700
v -0.81781300 0.39887100 -0.19859700
v -0.81781300 0.39887100 -0.19859700
v -0.81718900 0.39736500 -0.19840000
v -0.81734400 0.39895700 -0.19840000
v -0.81699200 0.39737800 -0.19792400
v -0.81715100 0.39899200 -0.19792400
v -0.81718900 0.39736500 -0.19744900
v -0.81734400 0.39895700 -0.19744900
v -0.81766400 0.39733300 -0.19725200
v -0.81781300 0.39887100 -0.19725200
v -0.81813800 0.39730100 -0.19744900
v -0.81828100 0.39878600 -0.19744900
v -0.81833500 0.39728800 -0.19792400
v -0.81847400 0.39875100 -0.19792400
v -0.81813800 0.39730100 -0.19840000
v -0.81828100 0.39878600 -0.19840000
v -0.81791800 0.40047900 -0.19859700
v -0.81791800 0.40047900 -0.19859700
v -0.81744300 0.40044900 -0.19840000
v -0.81724600 0.40043700 -0.19792400
v -0.81744300 0.40044900 -0.19744900
v -0.81791800 0.40047900 -0.19725200
v -0.81839200 0.40050900 -0.19744900
v -0.81858900 0.40052100 -0.19792400
v -0.81839200 0.40050900 -0.19840000
v -0.81784700 0.40184600 -0.19861500
v -0.81784700 0.40184600 -0.19861500
v -0.81737700 0.40176200 -0.19842300
v -0.81717600 0.40173700 -0.19794900
v -0.81736300 0.40178600 -0.19747200
v -0.81782700 0.40188000 -0.19727000
v -0.81829700 0.40196300 -0.19746200
v -0.81849800 0.40198800 -0.19793600
v -0.81831200 0.40193900 -0.19841300
v -0.81757700 0.40299200 -0.19825800
v -0.81757700 0.40299200 -0.19825800
v -0.81737900 0.40295300 -0.19817700
v -0.81729500 0.40294100 -0.19797700
v -0.81737300 0.40296300 -0.19777600
v -0.81756800 0.40300600 -0.19769100
v -0.81776500 0.40304600 -0.19777200
v -0.81785000 0.40305800 -0.19797100
v -0.81777200 0.40303600 -0.19817300
v -0.81813000 0.40284000 -0.19837300
v -0.81828900 0.40289200 -0.19796000
v -0.81811700 0.40286100 -0.19754900
v -0.81771400 0.40276500 -0.19738300
v -0.81731600 0.40266200 -0.19755700
v -0.81715700 0.40261000 -0.19797100
v -0.81733000 0.40264200 -0.19838200
v -0.81773300 0.40273700 -0.19854800
v -0.81773300 0.40273700 -0.19854800
vn 0.00710000 0.00090000 -1.00000000
vn 0.00710000 0.00090000 -1.00000000
vn -0.00390000 0.00020000 -1.00000000
vn -0.00390000 0.00020000 -1.00000000
vn 0.70790000 0.06920000 -0.70290000
vn 0.70400000 0.05760000 -0.70790000
vn 0.99520000 0.09750000 -0.00000000
vn 0.99670000 0.08130000 -0.00000000
vn 0.70790000 0.06920000 0.70290000
vn 0.70400000 0.05760000 0.70790000
vn 0.00710000 0.00090000 1.00000000
vn -0.00390000 0.00020000 1.00000000
vn -0.70100000 -0.06720000 0.71000000
vn -0.70780000 -0.05690000 0.70410000
vn -0.99550000 -0.09520000 -0.00000000
vn -0.99680000 -0.08040000 -0.00000000
vn -0.70100000 -0.06720000 -0.71000000
vn -0.70780000 -0.05690000 -0.70410000
vn -0.01770000 -0.00710000 -0.99980000
vn -0.01770000 -0.00710000 -0.99980000
vn 0.69960000 -0.00060000 -0.71450000
vn 1.00000000 0.00670000 -0.00100000
vn 0.70160000 0.00810000 0.71250000
vn -0.01250000 0.00570000 0.99990000
vn -0.71280000 0.00320000 0.70130000
vn -1.00000000 -0.00070000 0.00430000
vn -0.71820000 -0.00610000 -0.69580000
vn -0.01060000 0.03080000 -0.99950000
vn -0.01060000 0.03080000 -0.99950000
vn 0.69920000 -0.02690000 -0.71450000
vn 0.99920000 -0.03930000 -0.01010000
vn 0.71480000 -0.00180000 0.69930000
vn 0.01310000 0.06720000 0.99770000
vn -0.69180000 0.12920000 0.71040000
vn -0.98940000 0.14480000 0.01030000
vn -0.70980000 0.10300000 -0.69690000
vn 0.22240000 0.85490000 -0.46870000
vn 0.22240000 0.85490000 -0.46870000
vn 0.55340000 0.74780000 -0.36680000
vn 0.70650000 0.70710000 -0.02900000
vn 0.56420000 0.76490000 0.31100000
vn 0.23660000 0.87710000 0.41790000
vn -0.04200000 0.96450000 0.26060000
vn -0.14350000 0.98940000 -0.02230000
vn -0.05110000 0.95040000 -0.30690000
vn -0.54880000 0.54770000 -0.63160000
vn -0.78310000 0.62190000 -0.00250000
vn -0.52860000 0.57810000 0.62160000
vn 0.08150000 0.43420000 0.89710000
vn 0.71670000 0.25990000 0.64710000
vn 0.98590000 0.16630000 -0.01990000
vn 0.69530000 0.22760000 -0.68170000
vn 0.05220000 0.39010000 -0.91930000
vn 0.05220000 0.39010000 -0.91930000
vt 1.00000000 0.50000000
vt 0.00000000 0.50000000
vt 1.00000000 1.00000000
vt 0.00000000 1.00000000
vt 0.87500000 0.50000000
vt 0.87500000 1.00000000
vt 0.75000000 0.50000000
vt 0.75000000 1.00000000
vt 0.62500000 0.50000000
vt 0.62500000 1.00000000
vt 0.50000000 0.50000000
vt 0.50000000 1.00000000
vt 0.37500000 0.50000000
vt 0.37500000 1.00000000
vt 0.25000000 0.50000000
vt 0.25000000 1.00000000
vt 0.12500000 0.50000000
vt 0.12500000 1.00000000
vt 1.00000000 1.00000000
vt 0.00000000 1.00000000
vt 0.87500000 1.00000000
vt 0.75000000 1.00000000
vt 0.62500000 1.00000000
vt 0.50000000 1.00000000
vt 0.37500000 1.00000000
vt 0.25000000 1.00000000
vt 0.12500000 1.00000000
vt 1.00000000 1.00000000
vt 0.00000000 1.00000000
vt 0.87500000 1.00000000
vt 0.75000000 1.00000000
vt 0.62500000 1.00000000
vt 0.50000000 1.00000000
vt 0.37500000 1.00000000
vt 0.25000000 1.00000000
vt 0.12500000 1.00000000
vt 0.00000000 1.00000000
vt 1.00000000 1.00000000
vt 0.87500000 1.00000000
vt 0.75000000 1.00000000
vt 0.62500000 1.00000000
vt 0.50000000 1.00000000
vt 0.37500000 1.00000000
vt 0.25000000 1.00000000
vt 0.12500000 1.00000000
vt 0.12500000 1.00000000
vt 0.25000000 1.00000000
vt 0.37500000 1.00000000
vt 0.50000000 1.00000000
vt 0.62500000 1.00000000
vt 0.75000000 1.00000000
vt 0.87500000 1.00000000
vt 1.00000000 1.00000000
vt 0.00000000 1.00000000
f 1/1/1 3/3/3 6/6/6
f 6/6/6 5/5/5 1/1/1
f 5/5/5 6/6/6 8/8/8
f 8/8/8 7/7/7 5/5/5
f 7/7/7 8/8/8 10/10/10
f 10/10/10 9/9/9 7/7/7
f 9/9/9 10/10/10 12/12/12
f 12/12/12 11/11/11 9/9/9
f 11/11/11 12/12/12 14/14/14
f 14/14/14 13/13/13 11/11/11
f 13/13/13 14/14/14 16/16/16
f 16/16/16 15/15/15 13/13/13
f 14/14/14 12/12/12 24/24/24
f 24/24/24 25/25/25 14/14/14
f 15/15/15 16/16/16 18/18/18
f 18/18/18 17/17/17 15/15/15
f 17/17/17 18/18/18 4/4/4
f 4/4/4 2/2/2 17/17/17
f 22/22/22 21/21/21 30/30/30
f 30/30/30 31/31/31 22/22/22
f 4/4/4 18/18/18 27/27/27
f 27/27/27 20/20/20 4/4/4
f 6/6/6 3/3/3 19/19/19
f 19/19/19 21/21/21 6/6/6
f 10/10/10 8/8/8 22/22/22
f 22/22/22 23/23/23 10/10/10
f 16/16/16 14/14/14 25/25/25
f 25/25/25 26/26/26 16/16/16
f 12/12/12 10/10/10 23/23/23
f 23/23/23 24/24/24 12/12/12
f 18/18/18 16/16/16 26/26/26
f 26/26/26 27/27/27 18/18/18
f 8/8/8 6/6/6 21/21/21
f 21/21/21 22/22/22 8/8/8
f 27/27/27 26/26/26 35/35/35
f 35/35/35 36/36/36 27/27/27
f 25/25/25 24/24/24 33/33/33
f 33/33/33 34/34/34 25/25/25
f 23/23/23 22/22/22 31/31/31
f 31/31/31 32/32/32 23/23/23
f 21/21/21 19/19/19 28/28/28
f 28/28/28 30/30/30 21/21/21
f 20/20/20 27/27/27 36/36/36
f 36/36/36 29/29/29 20/20/20
f 26/26/26 25/25/25 34/34/34
f 34/34/34 35/35/35 26/26/26
f 24/24/24 23/23/23 32/32/32
f 32/32/32 33/33/33 24/24/24
f 46/46/46 47/47/47 44/44/44
f 44/44/44 45/45/45 46/46/46
f 50/50/50 51/51/51 40/40/40
f 40/40/40 41/41/41 50/50/50
f 34/34/34 33/33/33 49/49/49
f 49/49/49 48/48/48 34/34/34
f 49/49/49 50/50/50 41/41/41
f 41/41/41 42/42/42 49/49/49
f 35/35/35 34/34/34 48/48/48
f 48/48/48 47/47/47 35/35/35
f 48/48/48 49/49/49 42/42/42
f 42/42/42 43/43/43 48/48/48
f 51/51/51 52/52/52 39/39/39
f 39/39/39 40/40/40 51/51/51
f 54/54/54 46/46/46 45/45/45
f 45/45/45 37/37/37 54/54/54
f 52/52/52 53/53/53 38/38/38
f 38/38/38 39/39/39 52/52/52
f 47/47/47 48/48/48 43/43/43
f 43/43/43 44/44/44 47/47/47
f 33/33/33 32/32/32 50/50/50
f 50/50/50 49/49/49 33/33/33
f 36/36/36 35/35/35 47/47/47
f 47/47/47 46/46/46 36/36/36
f 30/30/30 28/28/28 53/53/53
f 53/53/53 52/52/52 30/30/30
f 29/29/29 36/36/36 46/46/46
f 46/46/46 54/54/54 29/29/29
f 31/31/31 30/30/30 52/52/52
f 52/52/52 51/51/51 31/31/31
f 44/44/44 43/43/43 42/42/42
f 44/44/44 42/42/42 41/41/41
f 44/44/44 41/41/41 40/40/40
f 44/44/44 40/40/40 39/39/39
f 44/44/44 39/39/39 37/37/37
f 44/44/44 37/37/37 45/45/45
f 32/32/32 31/31/31 51/51/51
f 51/51/51 50/50/50 32/32/32

